<?xml version="1.0" encoding="UTF-8"?>
<svg version="1.1" xmlns="http://www.w3.org/2000/svg" width="1136" height="944">
<path d="M0 0 C9.726729 2.11260918 18.98115321 5.30289693 28.33810425 8.63647461 C31.00043178 9.58491922 33.66502641 10.52672828 36.33032227 11.46679688 C39.91221702 12.73025586 43.4934463 13.99557115 47.07421875 15.26220703 C53.51813502 17.53875854 59.97514981 19.77629475 66.4375 22 C68.12830688 22.58249512 68.12830688 22.58249512 69.85327148 23.17675781 C76.76378893 25.55364202 83.67969474 27.91442256 90.59765625 30.26953125 C94.06517726 31.45030631 97.5326168 32.6313203 101 33.8125 C101.86460846 34.10696014 102.72921692 34.40142029 103.62002563 34.70480347 C117.98108563 39.59845575 132.30734658 44.58613474 146.609375 49.6496582 C147.67958893 50.02787971 147.67958893 50.02787971 148.77142334 50.41374207 C150.16038852 50.90476633 151.54895065 51.39693247 152.93707275 51.89033508 C156.37943585 53.10693935 159.82964815 54.27561921 163.31152344 55.37451172 C164.35008987 55.70581337 164.35008987 55.70581337 165.40963745 56.04380798 C167.30919947 56.64543305 169.21282988 57.23416936 171.11669922 57.82202148 C174 59 174 59 176 62 C176.46156311 64.01771545 176.46156311 64.01771545 176.76196289 66.34790039 C176.93708153 67.65924706 176.93708153 67.65924706 177.11573792 68.99708557 C177.23352097 69.9377739 177.35130402 70.87846222 177.47265625 71.84765625 C177.60063095 72.81529404 177.72860565 73.78293182 177.86045837 74.77989197 C178.26854365 77.87317801 178.66613602 80.96769196 179.0625 84.0625 C179.4638954 87.16065825 179.86752918 90.25848785 180.2752533 93.3558197 C180.52860502 95.28397446 180.7780294 97.21264998 181.02320862 99.14186096 C181.13680222 100.01293991 181.25039581 100.88401886 181.36743164 101.78149414 C181.46576797 102.54965958 181.56410431 103.31782501 181.66542053 104.10926819 C181.92182299 106.08074391 181.92182299 106.08074391 183 108 C183.4125 107.57589844 183.825 107.15179688 184.25 106.71484375 C184.8275 106.12832031 185.405 105.54179687 186 104.9375 C186.8353125 104.08478516 186.8353125 104.08478516 187.6875 103.21484375 C189.66642063 101.3194924 191.68249801 99.51542339 193.75 97.71875 C197.92165333 94.09124636 201.97396886 90.35032755 206 86.5625 C206.70060547 85.90507812 207.40121094 85.24765625 208.12304688 84.5703125 C212.24684745 80.68863628 216.29230092 76.74686003 220.26171875 72.70703125 C222.8167839 70.19789985 225.51583559 67.86781586 228.23828125 65.54296875 C230.02504065 64.02700561 230.02504065 64.02700561 231.60546875 62.30078125 C233 61 233 61 235 61 C235.22816406 60.43667969 235.45632813 59.87335938 235.69140625 59.29296875 C237.35800939 56.37268206 239.42720751 54.54264237 241.9375 52.3125 C242.81277344 51.52488281 243.68804688 50.73726562 244.58984375 49.92578125 C247 48 247 48 250 47 C250.27714844 46.41734375 250.55429687 45.8346875 250.83984375 45.234375 C252.47228418 42.09041565 254.80752623 40.448232 257.5625 38.25 C258.55378906 37.45078125 259.54507812 36.6515625 260.56640625 35.828125 C263 34 263 34 264 34 C263.39283984 43.96394758 262.56968947 53.88001307 261.5625 63.8125 C260.47059249 74.75124312 259.49939339 85.69213768 258.73461914 96.65942383 C258.25505781 103.33995609 257.59612292 109.99366284 256.88136292 116.65231323 C255.67583487 127.93650897 254.57872466 139.23158638 253.48903942 150.52745819 C253.14751696 154.06749959 252.80352078 157.60726104 252.45361328 161.14648438 C252.10858709 164.63678605 251.76980134 168.12764393 251.435215 171.61896133 C251.24873345 173.54942359 251.05622346 175.47930058 250.86349487 177.40914917 C248.83082973 190.44333561 248.83082973 190.44333561 250.97599792 202.91285706 C252.46057916 204.6559911 252.46057916 204.6559911 255.3125 206.6875 C256.29863281 207.47511719 257.28476562 208.26273438 258.30078125 209.07421875 C260.17865379 210.41400336 262.08060801 211.72040534 264 213 C264 213.66 264 214.32 264 215 C264.78697266 215.30744141 264.78697266 215.30744141 265.58984375 215.62109375 C269.05766025 217.60511194 271.69247886 220.30513609 274.5625 223.0625 C280.49948297 228.67659306 286.61805334 233.89444267 293 239 C295.40163463 240.94817914 297.71221877 242.9155771 300 245 C300 245.66 300 246.32 300 247 C300.56203125 247.24363281 301.1240625 247.48726562 301.703125 247.73828125 C304.44019785 249.24180936 306.45795941 251.06699748 308.75 253.1875 C311.76438614 255.95141966 314.78037221 258.70118979 317.875 261.375 C320.72291486 263.85045114 323.50762432 266.38570706 326.27514648 268.95068359 C330.68177318 273.03330391 335.12952177 276.98045983 339.8125 280.75 C343.55990896 283.76725478 347.00418748 286.88623718 350.34765625 290.33984375 C352.66240404 292.66553598 355.1441146 294.77316989 357.62890625 296.9140625 C360.65649856 299.57754568 363.60785564 302.31863175 366.5625 305.0625 C370.96103033 309.14400776 375.39788157 313.14706364 380 317 C377.21080693 328.01625054 373.64398064 338.80526825 370.1875 349.625 C369.86107513 350.65123474 369.53465027 351.67746948 369.19833374 352.73480225 C365.60521737 364.02439637 361.94727993 375.2838891 358.0390625 386.46875 C357.72308609 387.37636078 357.40710968 388.28397156 357.08155823 389.21908569 C355.59793062 393.47357952 354.09837765 397.72118009 352.5690918 401.95947266 C345.20109013 422.71573816 342.15620906 444.55793735 341.42895508 466.52050781 C341.27233657 470.2021646 340.97071344 472.87247616 339 476 C336.25729631 477.48410744 333.61385044 478.73273492 330.75 479.9375 C329.8955127 480.30939453 329.04102539 480.68128906 328.16064453 481.06445312 C326.22386488 481.90538315 324.28437304 482.74008348 322.34277344 483.56982422 C318.57926778 485.18000653 314.82431652 486.80922938 311.0703125 488.44140625 C306.99233748 490.21369114 302.91379205 491.98455776 298.83105469 493.74584961 C298.19448944 494.02053574 297.55792419 494.29522186 296.90206909 494.57823181 C295.15610237 495.33126018 293.40984714 496.08361949 291.66357422 496.8359375 C290.09324954 497.52221688 288.53281414 498.23359293 287 499 C286.39460263 500.95671849 286.39460263 500.95671849 286.02734375 503.36328125 C285.85468994 504.29906006 285.68203613 505.23483887 285.50415039 506.19897461 C285.31715576 507.22643799 285.13016113 508.25390137 284.9375 509.3125 C282.3604547 522.54681631 278.38288566 535.1675605 274.04296875 547.91699219 C273.14726076 550.56469829 272.28359404 553.21897365 271.4375 555.8828125 C268.13042844 566.08096835 263.44016945 575.27993112 258.27587891 584.65673828 C257.03137393 586.94237907 255.82710451 589.24437174 254.63671875 591.55859375 C238.42904728 623.03219591 214.14321258 652.74042584 185.58984375 673.80273438 C184.06987798 674.9473769 182.59587396 676.15229909 181.125 677.359375 C155.82747191 697.9472569 125.61401235 710.68782781 95 721 C93.66382777 721.45258707 92.32772897 721.90539097 90.99169922 722.35839844 C82.34374642 725.28733417 73.68669154 728.18771367 65 731 C64.01676758 731.32500488 63.03353516 731.65000977 62.02050781 731.98486328 C61.12944336 732.26958496 60.23837891 732.55430664 59.3203125 732.84765625 C58.55219238 733.09652588 57.78407227 733.34539551 56.99267578 733.60180664 C55 734 55 734 52 733 C52.32162109 732.41734375 52.64324219 731.8346875 52.97460938 731.234375 C54.48629468 728.49134546 55.99313568 725.74568067 57.5 723 C58.0053125 722.08476563 58.510625 721.16953125 59.03125 720.2265625 C66.42787461 706.72772259 73.09198865 692.86991716 79.625 678.9375 C79.96493988 678.2131073 80.30487976 677.4887146 80.65512085 676.74237061 C83.11356337 671.49962236 85.56030349 666.25149547 88 661 C88.32111755 660.30920349 88.64223511 659.61840698 88.9730835 658.90667725 C97.13427368 641.33103705 104.74473672 623.65366113 111.64160156 605.5378418 C112.6302719 602.96292773 113.63140602 600.39534458 114.64746094 597.83129883 C118.89178845 587.09675651 122.79283501 576.28594652 126.375 565.3125 C126.65213837 564.46426666 126.92927673 563.61603333 127.21481323 562.74209595 C136.1498816 535.18721555 142.80049708 506.81671507 146 478 C146.1227832 476.89785156 146.1227832 476.89785156 146.24804688 475.7734375 C146.72038004 471.18505814 146.90864978 466.60842847 147 462 C147.02578125 460.9992041 147.0515625 459.9984082 147.078125 458.96728516 C147.67347248 433.17013451 148.19682346 407.21509207 129.44970703 387.35791016 C120.70885925 378.13575079 120.70885925 378.13575079 110.74609375 370.30859375 C108.2534162 368.4404797 106.18553933 366.21753845 104 364 C101.9795134 362.06031917 99.92918845 360.15388198 97.875 358.25 C97.11703125 357.5384375 97.11703125 357.5384375 96.34375 356.8125 C93.01115208 353.72375071 89.56776554 350.85151604 86.0078125 348.02734375 C79.24420937 342.52809488 73.10629885 336.44276805 66.95703125 330.27270508 C65.0116474 328.32416629 63.05330451 326.38935281 61.09375 324.45507812 C50.83422102 314.24762345 41.58746876 303.43021736 33.625 291.3125 C33.21491699 290.69004395 32.80483398 290.06758789 32.38232422 289.42626953 C28.99344832 284.17762821 26.19955425 278.85988116 24 273 C23.62101562 271.99710937 23.24203125 270.99421875 22.8515625 269.9609375 C16.61483226 251.78153232 17.90629912 231.30787739 26.02246094 213.90234375 C30.47053338 205.24615483 36.92341589 197.83915222 43.375 190.625 C43.87467285 190.05885986 44.3743457 189.49271973 44.88916016 188.90942383 C46.3359375 187.3515625 46.3359375 187.3515625 49 185 C53 185 53 185 54.52734375 186.328125 C62.39274176 197.04772561 67.69526206 210.56957437 66 224 C65.28056127 226.70615859 64.39907227 229.34885752 63.5 232 C59.78818901 243.04754886 59.80648297 252.3131093 65 263 C72.78779304 276.61367946 82.96219524 287.96915564 94 299 C94.70133057 299.70801758 95.40266113 300.41603516 96.12524414 301.14550781 C99.8946293 304.94141039 103.71859683 308.57665772 107.77734375 312.0625 C111.47787228 315.28826828 115.07073448 318.63346271 118.6796875 321.9609375 C120.81946882 324.01577328 120.81946882 324.01577328 123 325 C123 325.66 123 326.32 123 327 C123.88401489 327.40859253 123.88401489 327.40859253 124.78588867 327.82543945 C126.94915347 328.9730265 128.58324695 330.19040958 130.42578125 331.79296875 C131.05806641 332.34146484 131.69035156 332.88996094 132.34179688 333.45507812 C132.99212891 334.02677734 133.64246094 334.59847656 134.3125 335.1875 C134.95123047 335.73986328 135.58996094 336.29222656 136.24804688 336.86132812 C140.11188477 340.23191012 143.79549308 343.72355938 147.37280273 347.39697266 C149.09357912 349.09218912 150.89562087 350.64054747 152.75 352.1875 C176.37968097 372.8976837 186.12634005 400.5675752 188.44384766 431.27124023 C191.66856996 480.34472482 180.65776543 529.46333145 166 576 C165.54028809 577.46638916 165.54028809 577.46638916 165.07128906 578.96240234 C156.33491606 606.56914624 145.15070165 633.3029925 134 660 C158.41384751 644.17559252 182.10040511 626.06912 199 602 C199.67546875 601.04609375 200.3509375 600.0921875 201.046875 599.109375 C203.39395921 595.75870995 205.70673882 592.38759932 208 589 C208.38091797 588.44006348 208.76183594 587.88012695 209.15429688 587.30322266 C215.28010045 578.24279266 220.38976498 568.91262885 225 559 C225.39864258 558.1529248 225.79728516 557.30584961 226.20800781 556.43310547 C238.11561594 530.9174571 247.45468547 501.77044335 249.1875 473.50390625 C250.15153998 470.53299458 251.44784413 469.50624039 254.11328125 467.94995117 C257.83493047 466.07612391 261.64888605 464.46201919 265.5 462.875 C274.44110739 459.12755966 283.27531282 455.18602528 292.06640625 451.09912109 C292.94554687 450.69387207 293.8246875 450.28862305 294.73046875 449.87109375 C295.50801514 449.50943115 296.28556152 449.14776855 297.08666992 448.77514648 C299 448 299 448 301 448 C301.06993164 447.40276123 301.13986328 446.80552246 301.21191406 446.19018555 C303.62340752 425.91541864 307.16052223 407.33477697 314.09033203 388.07324219 C314.67403564 386.41663574 314.67403564 386.41663574 315.26953125 384.7265625 C315.62635986 383.74252441 315.98318848 382.75848633 316.35083008 381.74462891 C317.07796707 378.67036262 317.01986953 376.97820474 316 374 C314.65512951 372.19866032 314.65512951 372.19866032 312.859375 370.6875 C312.20662598 370.09275879 311.55387695 369.49801758 310.88134766 368.88525391 C309.82633057 367.95205322 309.82633057 367.95205322 308.75 367 C307.29245201 365.67647941 305.83675285 364.35092021 304.3828125 363.0234375 C303.6496582 362.35666992 302.91650391 361.68990234 302.16113281 361.00292969 C298.31576147 357.43905412 294.65104441 353.69816172 290.98730469 349.94921875 C288.26735093 347.11731956 288.26735093 347.11731956 285 345 C285 344.34 285 343.68 285 343 C284.34 343 283.68 343 283 343 C281.7734375 341.71484375 281.7734375 341.71484375 280.375 339.9375 C277.47315553 336.40668432 274.27649527 333.55203783 270.734375 330.67578125 C269 329 269 329 267 325 C287.13 325 307.26 325 328 325 C320.55671184 318.29746875 320.55671184 318.29746875 312.875 311.875 C307.29052209 307.36628554 302.12441073 302.46901676 296.92358398 297.52685547 C292.21875847 293.07875894 287.38411561 288.94998916 282.3203125 284.9140625 C279.58378633 282.65665875 277.12859453 280.21816876 274.6640625 277.671875 C272.27847909 275.27509166 269.72744074 273.09079027 267.16796875 270.8828125 C264.75157049 268.7842468 262.37470976 266.645603 260 264.5 C254.6889392 259.71199821 249.33868649 254.97812349 243.8828125 250.35546875 C237.05639803 244.56124688 230.38609611 238.64484957 223.84936523 232.52514648 C216.54121339 225.42726991 216.54121339 225.42726991 208.39111328 219.40283203 C206 217 206 217 205.62280273 213.48803711 C205.71889854 212.01984316 205.84597384 210.55350078 205.99609375 209.08984375 C206.05985703 208.27136459 206.1236203 207.45288544 206.1893158 206.60960388 C206.42626113 203.73575778 206.70982893 200.8689504 207 198 C207.10644836 196.90198059 207.21289673 195.80396118 207.3225708 194.67266846 C208.17262902 185.96226465 209.11049259 177.26225648 210.0625 168.5625 C210.48552507 164.66570961 210.90706358 160.7687689 211.32627869 156.87156677 C211.58534812 154.46624116 211.84677362 152.06116783 212.1108551 149.65638733 C212.28620033 148.03705544 212.28620033 148.03705544 212.46508789 146.38500977 C212.56866104 145.43860123 212.67223419 144.49219269 212.77894592 143.5171051 C213.0583227 140.75702156 213.0583227 140.75702156 213 137 C212.2265625 137.71285156 211.453125 138.42570313 210.65625 139.16015625 C209.60421301 140.12765456 208.552127 141.09509957 207.5 142.0625 C206.74203125 142.76149414 206.74203125 142.76149414 205.96875 143.47460938 C203.03647397 146.16863798 200.07221455 148.81783195 197.06640625 151.4296875 C193.10339844 154.88489648 189.25967826 158.45285282 185.4375 162.0625 C184.03917651 163.37772539 182.64073611 164.69282649 181.2421875 166.0078125 C180.53932617 166.66942383 179.83646484 167.33103516 179.11230469 168.01269531 C161.50146062 184.58138125 161.50146062 184.58138125 153 192 C151.50013421 189.26670138 150.69042224 187.0044898 150.31738281 183.91381836 C150.16614708 182.7086985 150.16614708 182.7086985 150.01185608 181.47923279 C149.90997482 180.60823441 149.80809357 179.73723602 149.703125 178.83984375 C149.58895737 177.91804825 149.47478973 176.99625275 149.35716248 176.04652405 C149.11070984 174.05247176 148.86745742 172.05802191 148.62704468 170.06323242 C147.98705465 164.75766073 147.32284781 159.45511986 146.66015625 154.15234375 C146.52482986 153.06537201 146.38950348 151.97840027 146.25007629 150.85848999 C144.83534154 139.55741617 143.27719752 128.27760658 141.6875 117 C141.5587146 116.08435272 141.4299292 115.16870544 141.29724121 114.22531128 C140.20760893 106.48218839 139.10681101 98.74068403 138 91 C122.93632541 85.15540813 107.75574 79.81890183 92.39868164 74.80737305 C91.04946038 74.36562572 89.70041595 73.92333789 88.3515625 73.48046875 C87.70930222 73.26960129 87.06704193 73.05873383 86.40531921 72.84147644 C81.79840547 71.31024859 77.30099656 69.58997186 72.83349609 67.69262695 C71.01483431 66.88220385 71.01483431 66.88220385 69 67 C69.42410156 68.04978027 69.84820313 69.09956055 70.28515625 70.18115234 C71.85406427 74.06728881 73.41844432 77.9552344 74.98144531 81.84375 C75.65924189 83.52816872 76.33827417 85.21209074 77.01855469 86.89550781 C77.99477331 89.31186236 78.96656976 91.72995399 79.9375 94.1484375 C80.24373291 94.9036972 80.54996582 95.65895691 80.86547852 96.43710327 C83 101.77225659 83 101.77225659 83 104 C82.36578125 103.89042969 81.7315625 103.78085937 81.078125 103.66796875 C79.01059108 103.31671644 76.94131272 102.97568934 74.87109375 102.640625 C72.20810215 102.19992811 69.56185095 101.73238073 66.91015625 101.234375 C43.33864621 97.02416329 18.70271651 96.98375303 -5 100 C-6.86398437 100.21849609 -6.86398437 100.21849609 -8.765625 100.44140625 C-49.38256108 105.88643029 -88.10794705 125.3428669 -118 153 C-118.93070313 153.82757813 -119.86140625 154.65515625 -120.8203125 155.5078125 C-126.29711927 160.3876921 -131.35192892 165.32759099 -136 171 C-136.56460938 171.65355469 -137.12921875 172.30710937 -137.7109375 172.98046875 C-168.71396116 209.9355497 -189.30215677 259.63888111 -197 307 C-189.66759535 305.6585101 -182.54019704 303.85799126 -175.375 301.8125 C-174.30556152 301.51077881 -173.23612305 301.20905762 -172.13427734 300.89819336 C-166.46039564 299.29149284 -160.79694759 297.65180839 -155.140625 295.984375 C-154.0470166 295.66235107 -152.9534082 295.34032715 -151.82666016 295.00854492 C-149.72614144 294.38787159 -147.62680838 293.76316845 -145.52880859 293.1340332 C-144.58344238 292.85390381 -143.63807617 292.57377441 -142.6640625 292.28515625 C-141.41810303 291.91209351 -141.41810303 291.91209351 -140.14697266 291.53149414 C-138 291 -138 291 -135 291 C-135.68328735 298.40649035 -137.49721836 305.4220943 -139.3515625 312.61328125 C-139.69249778 313.94953638 -140.03301401 315.28589848 -140.37313843 316.62236023 C-141.27030248 320.14267043 -142.17336324 323.661442 -143.07763672 327.17993164 C-143.97086479 330.66001512 -144.85814602 334.14161318 -145.74609375 337.62304688 C-149.31158033 351.591299 -152.9140217 365.54983519 -156.53808594 379.50300598 C-159.49351713 390.88652748 -162.40289996 402.28167472 -165.30761719 413.67822266 C-174.21126271 448.60058124 -174.21126271 448.60058124 -179 465 C-178.0298999 464.98952637 -177.0597998 464.97905273 -176.06030273 464.96826172 C-138.57071375 464.60026504 -138.57071375 464.60026504 -120 467 C-118.53191895 467.1853833 -118.53191895 467.1853833 -117.03417969 467.37451172 C-80.1682057 472.20680097 -42.68369267 483.40733643 -14 508 C-13.13246094 508.73347656 -12.26492188 509.46695312 -11.37109375 510.22265625 C-6.16447112 514.74644312 -1.78790103 519.23840318 2 525 C2.61359375 525.91007813 3.2271875 526.82015625 3.859375 527.7578125 C12.29222656 540.79931549 18.67846223 554.56977916 21 570 C21.12890625 570.73605469 21.2578125 571.47210937 21.390625 572.23046875 C23.12888951 584.05524177 22.34908161 596.29786698 20.625 608.0625 C20.49899414 608.93753174 20.37298828 609.81256348 20.24316406 610.71411133 C19.90551826 612.82313456 19.46243898 614.91478205 19 617 C18.34 617.33 17.68 617.66 17 618 C6.66566877 614.54717438 -1.40843189 609.91371953 -9 602 C-9.67804688 601.34386719 -10.35609375 600.68773437 -11.0546875 600.01171875 C-12.74694694 598.37212298 -14.40732812 596.73630807 -16 595 C-16.53882813 594.44828125 -17.07765625 593.8965625 -17.6328125 593.328125 C-19.63403268 589.92033292 -19.66260899 586.41900016 -19.9375 582.5625 C-21.45040582 566.40862244 -26.85525068 551.31616019 -39 540 C-48.7799951 532.07353248 -59.24922921 525.90882819 -71 521.4375 C-72.01199463 521.05110352 -73.02398926 520.66470703 -74.06665039 520.26660156 C-88.27239581 514.93454212 -102.21532912 511.62428151 -117.1875 509.25 C-118.19476639 509.08908875 -118.19476639 509.08908875 -119.22238159 508.92492676 C-136.18107197 506.252356 -152.99222651 505.76804308 -170.125 505.75 C-171.64856613 505.74649536 -171.64856613 505.74649536 -173.20291138 505.74291992 C-192.9174504 505.72593777 -212.39873605 506.96350504 -232 509 C-230.90798403 501.74705814 -229.19113177 494.70340035 -227.29196167 487.62806702 C-225.05658681 479.28070851 -222.93452112 470.90597308 -220.8203125 462.52734375 C-220.43802912 461.01452108 -220.05568394 459.50171402 -219.67327881 457.98892212 C-218.09498149 451.74380615 -216.51832787 445.49827669 -214.94384766 439.25219727 C-210.85313237 423.02726118 -206.7291588 406.81804076 -202.33947754 390.67076111 C-199.97874919 381.97615948 -197.76725976 373.25062311 -195.625 364.5 C-195.11324917 362.41232775 -194.60062619 360.32489082 -194.08505249 358.23815918 C-193.63336849 356.40998366 -193.18496778 354.58099782 -192.73681641 352.75195312 C-192 350 -192 350 -191 348 C-192.20527344 348.40089844 -193.41054688 348.80179688 -194.65234375 349.21484375 C-206.59656473 353.12812929 -218.62544923 356.63487963 -230.75 359.9375 C-231.49176483 360.14035614 -232.23352966 360.34321228 -232.99777222 360.55221558 C-235.11738721 361.13071907 -237.23808545 361.70501441 -239.359375 362.27734375 C-240.59139648 362.60984131 -241.82341797 362.94233887 -243.09277344 363.28491211 C-246 364 -246 364 -248 364 C-246.79896943 348.82908755 -244.71142099 333.97080792 -242 319 C-241.6908667 317.24018799 -241.6908667 317.24018799 -241.37548828 315.44482422 C-227.85167547 238.82337169 -196.39448758 158.19037013 -132 110 C-131.3601416 109.51611816 -130.7202832 109.03223633 -130.06103516 108.53369141 C-99.77865055 85.73014864 -65.25957671 69.51213924 -28 62 C-26.61706376 61.70370194 -25.23424494 61.40685516 -23.8515625 61.109375 C-9.10602325 58.10728916 5.94700741 56.50555864 21 57 C17.03255096 46.48179506 13.02321192 35.98603637 8.8125 25.5625 C0 3.69841318 0 3.69841318 0 0 Z " fill="#000000" transform="translate(474,202)"/>
</svg>
